<svg xmlns="http://www.w3.org/2000/svg" fill="#E4405F" viewBox="0 0 24 24">
  <path d="M12 2.2c3.2 0 3.584.012 4.85.07 1.17.054 1.96.24 2.41.405a4.84 4.84 0 0 1 1.76 1.03 4.84 4.84 0 0 1 1.03 1.76c.165.45.35 1.24.405 2.41.058 1.27.07 1.65.07 4.85s-.012 3.584-.07 4.85c-.054 1.17-.24 1.96-.405 2.41a4.84 4.84 0 0 1-1.03 1.76 4.84 4.84 0 0 1-1.76 1.03c-.45.165-1.24.35-2.41.405-1.27.058-1.65.07-4.85.07s-3.584-.012-4.85-.07c-1.17-.054-1.96-.24-2.41-.405a4.84 4.84 0 0 1-1.76-1.03 4.84 4.84 0 0 1-1.03-1.76c-.165-.45-.35-1.24-.405-2.41C2.212 15.584 2.2 15.2 2.2 12s.012-3.584.07-4.85c.054-1.17.24-1.96.405-2.41a4.84 4.84 0 0 1 1.03-1.76 4.84 4.84 0 0 1 1.76-1.03c.45-.165 1.24-.35 2.41-.405C8.416 2.212 8.8 2.2 12 2.2zm0 1.8c-3.17 0-3.55.012-4.8.07-1.03.048-1.59.218-1.96.364-.49.19-.84.41-1.2.77a3.07 3.07 0 0 0-.77 1.2c-.146.37-.316.93-.364 1.96-.058 1.25-.07 1.63-.07 4.8s.012 3.55.07 4.8c.048 1.03.218 1.59.364 1.96.19.49.41.84.77 1.2.36.36.71.58 1.2.77.37.146.93.316 1.96.364 1.25.058 1.63.07 4.8.07s3.55-.012 4.8-.07c1.03-.048 1.59-.218 1.96-.364.49-.19.84-.41 1.2-.77.36-.36.58-.71.77-1.2.146-.37.316-.93.364-1.96.058-1.25.07-1.63.07-4.8s-.012-3.55-.07-4.8c-.048-1.03-.218-1.59-.364-1.96a3.07 3.07 0 0 0-.77-1.2 3.07 3.07 0 0 0-1.2-.77c-.37-.146-.93-.316-1.96-.364-1.25-.058-1.63-.07-4.8-.07zM12 5.84a6.16 6.16 0 1 1 0 12.32 6.16 6.16 0 0 1 0-12.32zm0 10.16a4 4 0 1 0 0-8 4 4 0 0 0 0 8zm6.4-10.56a1.44 1.44 0 1 1 0 2.88 1.44 1.44 0 0 1 0-2.88z"/>
</svg>
